<?xml version="1.0" encoding="UTF-8"?>
<svg xmlns="http://www.w3.org/2000/svg" viewBox="0 0 395.87 627.69">
  <defs>
    <style>
      .cls-1 {
        fill: none;
      }

      .cls-1, .cls-2 {
        stroke: #000;
        stroke-linecap: round;
        stroke-linejoin: round;
        stroke-width: 3px;
      }

      .cls-2 {
        fill: #e86788;
      }
    </style>
  </defs>
  <g id="_底图" data-name="底图">
    <path class="cls-1" d="M141.31,491.85c-2.02.85-4.07,1.62-6.23,2.17-5.35,1.37-9.88,4.67-14.7,7.26-8.51,4.57-17.46,8.02-26.91,10.03-2.97.63-6.01-.18-8.95-.59-4.52-.63-8.88-2.15-13.33-3.17-.17-.04-.37.04-.54-.01-4.52-1.35-6.47-4.5-5.11-8.95,1.05-3.43,1.13-6.85,1.04-10.35-.09-3.54.24-7.07.51-10.61.17-2.18-.95-3.61-3.02-4.61-1.74,1.97-1.84,4.45-2.26,6.55-.64,3.25-2.02,6.04-3.36,8.96-4.05,8.82-10.35,15.89-17.19,22.52-4.21,4.09-7.28,9.16-11.81,12.89,2.29,4.26,7.33,4.84,9.97,8.17-.42,2.41-.93,4.57-2.74,6.17-.74.65-.51,1.59-.56,2.44-.09,1.54.11,3.07-.23,4.63-.71,3.25-.2,4.17,2.96,4.57,4.39.55,8.67,1.63,13.04,2.22,1.78.24,2.78.8,2.78,3,0,7.83-2.23,15.2-4.44,22.56-1.69,5.61-1.42,6.37,4.38,7.04,5.57.64,10.8,2.69,16.3,3.61,3.81.64,7.63,1.11,11.43,1.81,6.3,1.16,12.53,2.62,18.75,4.13,2.63.64,5.27,1.19,8.06,2.05.76-2.34.2-4.67.35-6.93.1-1.48,2.76-3.38,4.07-2.68,1.99,1.07,4.17.96,6.28,1.29,1.59.25,3.02.63,4.08,1.93,1.32,1.61,1.13,3.29-.55,4.63-2.11,1.68-2.18,2.18-.56,4.06,1.47-1.07,2.45-3.86,4.91-1.31-.35,1.24-2.2,1.42-2.19,3.11.65.84,1.78,1.02,2.74,1.15,1.29.18,2.36.72,2.94,1.71,2.56,4.37,7.95,5.59,10.34,9.89,2.8-1.43,5.2,0,7.64.23.51.05,1.11.21,1.64.17,5.19-.34,10.35.34,15.49.7,7.34.52,14.71.53,22.04,1.44,3.41.42,6.87.06,10.33.54,8.74,1.23,25.17.84,33.97.87"/>
    <path class="cls-1" d="M151.78,487.23c-3.58,1.39-6.97,3.14-10.46,4.62"/>
    <path class="cls-1" d="M146.89,471.95c1.82,5,3.15,10.17,4.89,15.28"/>
    <path class="cls-1" d="M142.05,456.01c.73,2.37,1.36,4.76,1.73,7.22.2,1.3.54,2.61,1.09,3.8.75,1.62,1.41,3.26,2.02,4.93"/>
    <path class="cls-1" d="M127.98,376.48c-.05,7.79,1.69,15.28,3.17,22.86.89,4.53,1.38,9.2,1.78,13.84.41,4.75,1.44,9.43,2.25,14.12.64,3.72,1.3,7.47,1.97,11.18.94,5.22,2.53,10.21,4.17,15.21.25.76.5,1.53.73,2.3"/>
    <path class="cls-1" d="M109.41,299.92c3.25,3.84,6.57,7.62,9.36,11.83,2.26,3.42,3.99,6.95,4.4,11.15.38,3.78,1.63,7.43,2.37,11.16.64,3.23,1.33,6.46,1.38,9.79.17,10.88,1.13,21.74,1.06,32.63"/>
    <path class="cls-1" d="M119.84,200c-1.87-1.29-3.32-3.03-4.88-4.64-3.89-4.02-9.01-4.71-14.15-5.43-2.11-.3-2.9,1.64-4.42,2.61-1.94-1.52-4.3-.67-6.46-1.23-4.85-1.24-8.97-3.98-13.34-6.23-3.3-1.7-6.63-3.59-10.58-3.29-.54.04-1.06-.14-1.65.23-4.57,2.89-9.7,4.87-13.84,8.46-2.52,2.19-4.91,3.9-8.73,2.81-4.97-1.41-8.17,1.87-11.13,5.33-5.11,5.95-10.33,11.84-16.87,16.27-1.62,1.1-2.62,2.38-3.34,4.3,3.33,3.32,7,6.35,11.05,8.71,3.36,1.97,4.8,4.66,5.09,8.25.1,1.28.32,2.36,1.35,3.29.97.89,1.26,2.19,1.1,3.5-.27,2.22.45,4.35.61,6.52.07.97.32,2.21,1.32,2.69,3.95,1.93,5.36,5.82,7.3,9.29.39.7.84,1.43,1.08,2.17,1.41,4.45,4.54,6.84,9.02,7.26,2.16.2,2.8,1.37,3.57,3.04,1.61,3.49,2.38,7.05,2.16,10.9-.14,2.54-.08,5.09.46,7.62.24,1.12.74,1.31,1.68,1.36,2.7.15,5.23-.53,7.59-1.69,1.5-.74,2.91-1.54,4.64-1.61,1.99-.08,2.75.69,2.48,2.74-.33,2.55.35,4.97,1.3,7.35.65,1.65,1.7,1.65,3.02,1.07,2.5-1.08,4.6-2.79,6.81-4.33,5.39-3.78,10.59-7.84,16.43-11.25,2.34,1.99,3.77,4.74,5.56,7.17,1.69,2.29,3.51,4.47,5.35,6.64"/>
    <path class="cls-1" d="M183.97,450.02c.15.6.34,1.19.56,1.78.06.16.08.42,0,.53-.27.36-.03.88-.78,1.16-2.13.79-1.38,4.78-4.92,4.36-1.87-.22-3.78-.44-5.7-.37-1.87.06-2.69.88-2.74,2.75-.07,2.3.76,4.49.61,6.8-.08,1.23-.43,1.97-1.67,1.88-2.51-.18-4.48.82-6.27,2.45-1.01.92-2.07,1.33-3.27.03-3.06-3.29-6.59-2.04-10.02-.79-.76.28-1.51.8-2.19,1.32"/>
    <path class="cls-1" d="M183.47,438.75c-.14,3.77-.45,7.57.5,11.27"/>
    <path class="cls-1" d="M239.34,350.51c-5.19,5.79-10.37,11.59-15.45,17.49-3.84,4.46-7.88,8.78-11.87,13.13-6.33,6.9-12.93,13.65-18.59,21.06-3.56,4.67-6.24,10.31-7.3,16.43-1.1,6.32-2.47,12.62-2.62,19.04,0,.36-.02.72-.03,1.09"/>
    <path class="cls-1" d="M254.07,333.87c-2.22,2.54-4.44,5.07-6.67,7.59-2.68,3.03-5.37,6.04-8.06,9.05"/>
    <path class="cls-1" d="M287.97,295.6c-6.1,6.94-12.2,13.88-18.4,20.73-5.23,5.79-10.36,11.66-15.5,17.53"/>
    <path class="cls-1" d="M318.94,259.47c-2.54,2.73-4.74,5.73-7.18,8.52-6.04,6.93-11.87,14.03-17.94,20.94-1.95,2.22-3.9,4.45-5.86,6.67"/>
    <path class="cls-1" d="M360.03,163.25c.48-.57,1-1.11,1.58-1.63,3.86,6.85,8.27,13.1,12.69,19.33,3.27,4.62,6.45,9.3,9.82,13.84,1.12,1.51,1.15,2.38-.01,3.88-7.52,9.68-15.26,19.19-22.93,28.75-9.52,11.87-19.02,23.75-28.5,35.66-.27.34-.51.82-1.22.85-3.61-1.85-7.03-4.33-11.12-5.88-.48.47-.94.94-1.39,1.43"/>
    <path class="cls-1" d="M163.88,142.36c6.27,1.89,12.04,4.79,17.73,8.05,4.42,2.53,8.81,4.8,12.88,8.06,4.11,3.3,8.7,6.21,13.2,9.11,4.95,3.19,9.63,6.75,14.62,9.88,10.18,6.38,19.6,13.98,30.5,19.2.7.34,1.37.8,1.81,1.22,4.58,4.36,10.13,4.54,15.81,3.71,6.59-.97,13.21-1.5,19.85-1.89,1.54-.09,3.03-.6,4.62-.54,3.07.12,3.23.24,3.28,3.29.01.81-.28,1.68.23,2.45.21.27.39.35.57.27,3.32-1.47,6.81-2.42,10.32-3.29.61-.15,1.25-.44,1.64-1.06,1.71-2.65,4.43-3.95,7.04-5.47,7.3-4.25,13.96-9.52,21.22-13.83,5.82-3.46,11.07-7.66,16.02-12.25,1.85-1.71,3.06-3.99,4.78-6.02"/>
    <path class="cls-1" d="M208.33,506.37c-3.61-5.62-7.43-11.08-11.38-16.43-3.48-4.72-5.37-10.04-7.47-15.32-1.31-3.3-3.03-6.49-3.54-10.05-.35-2.43-1.01-4.85-.84-7.34.08-1.28-.11-2.46-.82-3.54"/>
    <path class="cls-1" d="M218.45,521.53c-.24-1.58-.96-3.09-2.1-4.2-3.29-3.19-5.6-7.19-8.02-10.96"/>
    <path class="cls-1" d="M141.32,492.59c.41,4.01.87,7.98,2.66,11.72.98,2.04,2.23,3.02,4.41,2.67,1.41-.23,2.15.17,1.89,1.65-.54,3.11-.69,6.45-3.95,7.98,1.12,9.26-.11,18.71,4.3,27.56,1.88.1,3.97.03,6.21-.65,7.69-2.33,15.74-2.84,23.62-4.21,5.25-.92,10.56-1.48,15.81-2.47,3.77-.7,7.61-1.17,11.07-2.73,4.04-1.81,8.04-3.95,10.36-8.08.76-1.35.98-2.96.75-4.5"/>
    <path class="cls-1" d="M240.57,254.28c2.8-3.95,6.27-6.24,10.3-7.77,1.4-.53,2.65-.37,3.82.78,2.15,2.13,4.12,4.42,5.97,6.81,1.95,2.51,3.57,3.03,6.2,1.31,3.67-2.39,7.53-4.59,10.39-8.08,2.26-2.76,5.83-2.31,7.61.79.99,1.72,1.5,3.61,2.13,5.46.66,1.95,1.85,3.38,3.84,3.46,2.81.11,5.67.43,8.44-.7,1.46-.59,2.58-1.3,3.26-2.76,1.32-2.85,3.93-3.85,6.17-1.83,3.1,2.79,6.68,4.89,9.85,7.54"/>
    <path class="cls-1" d="M247.92,261.09c-2.79-1.89-4.55-4.7-7.35-6.8"/>
    <path class="cls-1" d="M287.29,295.18c-4.45-4.72-9.04-9.34-14.19-13.25-5.65-4.3-11.31-8.55-16.57-13.35-2.46-2.25-4.41-5.24-7.35-6.74-.45-.23-.87-.48-1.26-.75"/>
    <path class="cls-1" d="M287.84,63.77c1.06.45,1.72,1.32,2.49,2.14,1.01,1.06,1.47,2.73,3.48,2.88.8.06,1.5,1.35,1.68,2.59.35,2.39,1.29,2.8,3.22,1.64,3.5-2.1,3.46-2.08,5.99,1.08,3.46,4.34,7.09,8.54,10.35,13.04.26.36.54.74.78,1.11,2.15,3.36,1.9,4.54-1.34,6.8-.37.26-.87.35-1.11.88.03,1.54,1.25,2.55,2.24,3.4,3.18,2.75,5.09,6.66,8.63,9.07.94.64.6,1.93.55,2.95-.07,1.58.41,2.44,2.19,2.48,1.81.05,2.38,1.15,2.23,2.96-.1,1.26-.33,2.49-.91,3.51-2.37,4.1-1.42,8.11.35,11.97,3.04,6.64,6.76,12.95,9.21,19.86.11.3.45.72.56.77,4.05,1.91,6.39,6.43,11.65,6.76,3.32.2,6.93,1.09,9.8,3.35"/>
    <path class="cls-1" d="M163.57,141.8c1.61-2.72,3.23-5.43,3.97-8.45,1.3-5.32,1.77-10.86-1.44-16.04-2.98-4.81-5.2-10.03-6.85-15.47-.73-2.41-.35-4.92-.63-7.37-.38-3.33-1.45-6.47-1.95-9.75-.48-3.17-.89-6.38-1.43-9.55-1.05-6.2-.69-12.5-.54-18.75.11-4.63.48-9.26.93-13.88"/>
    <path class="cls-1" d="M120.65,199.46c.43-.44.65-1,.54-1.63-.63-3.78.45-7.77-.91-11.39-.9-2.4-.16-4.21.94-6,1.8-2.93,4.01-5.59,7.04-7.34,3.93-2.28,6.67-5.13,6.86-10.08.14-3.65,2.34-5.49,6.14-6.42,3.78-.93,7.27-3.26,11.2-3.85,4.24-.63,6.92-2.94,8.68-6.6.72-1.49,1.57-2.93,2.42-4.36"/>
    <path class="cls-1" d="M144.97,252.42c-1.14-1.09-2.01-2.43-2.34-4.28-.18-.99-.58-1.97-.82-2.99-1.06-4.49-2.63-8.56-6.39-11.81-3.3-2.85-5.02-7.09-6.88-11.05-2.25-4.82-4.08-9.8-5.44-14.95-.44-1.68-1.34-3.21-2.27-4.55-.9-1.29-1.35-2.13-.18-3.33"/>
    <path class="cls-1" d="M170.68,282.94c-.2-2.81-.02-5.62-.2-8.43-.29-4.57-1.52-8.42-5.48-11.18-2.58-1.81-2.2-4.08.8-5.93,1-.62,2.22-.95,2.72-2.15-1.04-2.89-3.75-3.6-7.63-2.23-3.03,1.06-5.84,2.85-9.23,2.78-.98-.02-1.88-.08-2.72-.58-1.41-.85-2.82-1.69-3.96-2.78"/>
    <path class="cls-1" d="M155.62,42.55c.22-2.21.1-4.52.1-6.79,0-5.44-.03-10.88.01-16.32.02-3.04,1.23-4.17,4.05-3.47,1.92.48,3.81.46,5.72.47,1.38,0,2.62.35,3.51,1.39.65.76,1.39,1.55.33,2.73-1.08,1.2-1.02,2.56.23,3.79,1.29,1.27,2,2.86,2.48,4.61.74,2.76,2.71,4.64,5.42,4.8,3.67.21,6.3,2.02,8.99,4.15,2.84,2.25,5.39,4.89,8.67,6.56,1.63.82,3.24,1.63,5.17,1.36,4.97-.71,9.43,1.59,14.15,2.37,4.88.8,9.85.84,14.66-.75,1.4-.46,2.76-3.15,2.13-4.58-.93-2.09-.29-4.19-.47-6.28-.16-1.88,1.51-2.28,2.72-2.67,3.93-1.26,7.92-2.38,11.95-3.31.26-.06.6.09.81-.02,2.55-1.39,4.91-2.05,7.67-.06,2.4,1.73,5.58,1.08,8.39,1.65,2.29.47,3.99,1.32,5.48,3.27,4.93,6.47,8.09,13.91,11.88,20.99,1.86,3.48,4.63,5.8,8.18,7.33"/>
    <path class="cls-1" d="M287.02,64.04c-2.84,2.05-6.36,1.93-9.52,2.98-5.35,1.77-5.36,1.75-5.43,7.35-.01.82-.05,1.63-.24,2.45-.45,1.94-.95,3.72.99,5.51,1.94,1.8.87,5.6-1.56,6.99-.28.16-.39.51-.82.56-5.6.56-5.92,4.69-5.98,8.96-.05,3.31.35,6.56,1.07,9.79.59,2.66-.36,3.74-3.24,4.65-4.84,1.53-9.64,1.95-14.7,1.15-3.46-.54-7.05-.3-10.59-.54-5.12-.36-9.84-1.4-14.47-3.78-3.03-1.56-3.87-3.86-4.23-6.66-.23-1.82-.44-3.57-1.19-5.47-1.14,1.12-1.89,2.09-2.68,3.02-1.88,2.23-4.23,1.87-5.43-.81-1.13-2.54-.53-4.95.53-7.35.36-.82.86-1.55,1.12-2.44.37-1.27.28-2-1.08-2.78-3.91-2.27-8.2-3.12-12.54-3.72-10.31-1.43-18.37-5.65-21.82-16.32-.66-2.04-2.09-3.89-3.71-5.48-3.66-3.59-7.26-7.24-10.66-11.1-2.11-2.39-3.08-5.38-4.85-7.92"/>
    <path class="cls-1" d="M232.65,617.13c1.29.15.78-.83.8-1.36.27-10.15-.36-20.3.48-30.46.44-5.22.04-10.51.1-15.76.02-1.71-.22-3.13-1.62-4.38-3.93-3.5-7.02-7.83-10.9-11.39-1.12-1.03-1.57-2.24-1.69-3.8-.24-3.18.86-5.21,3.51-7.18,4.11-3.05,8.11-6.32,11.61-9.62,0-2.41-2.22-.72-2.97-1.89.51-1.5,2.75-1.56,2.57-3.34-.31-3.03.8-5.95.6-8.98-.05-.77-.31-1.61-.85-1.56-2.55.23-5.08-1.65-7.55.06-1.18-2.17-1.84-2.37-3.02-.64-1.32,1.94-2.79,3.6-4.93,4.6"/>
    <path class="cls-1" d="M148.19,285.08c-2.45-1.92-3.82-4.31-4.71-7.03-.73-2.25-2.16-3.29-4.62-2.48-.57.19-1.28-.08-1.89.04-4.49.89-9.2-.15-13.57,1.4-1.92.68-3.84.41-5.74.67-1.71.23-3.05-1.15-3.74-2.65-.63-1.38.64-2.32,1.6-2.93,9.53-6.19,18.58-13.08,28.25-19.07"/>
    <path class="cls-1" d="M140.3,296.53c2.95-3.51,5.45-7.36,7.89-11.45"/>
    <path class="cls-1" d="M109.78,299.53c.45-.45.9-.91,1.36-1.36,2.4-2.35,3.77-2.47,6.22-.24.84.76,1.59,1.65,2.29,2.63,2.94,4.14,5.66,8.55,10.37,11.23,4.41-3.26,4.72-9.24,8.32-13.06.68-.72,1.33-1.45,1.96-2.2"/>
    <path class="cls-1" d="M228.03,278.32c4.88,1.87,9.42,4.23,13.07,8.14,3.72,3.98,8.12,7.3,11.48,11.97-1.97,3.51-4.7,6.63-7.7,9.53-2.99,2.88-5.72,5.96-8.08,9.52,1.71,1.55,3.54,2.66,5.35,3.82,4.94,3.17,8.43,7.73,11.7,12.49"/>
    <path class="cls-1" d="M208.6,227.47c-1.68-1.21-3.35.05-5.03.04-4.72-.04-9.4-.94-14.14-.59-4.04.29-7.74,1.14-11.48,3.15-10.27,5.5-19.03,13.08-28.47,19.71-1.17.82-2.46,1.48-3.54,2.44"/>
    <path class="cls-1" d="M220.42,304.15c-4.88.23-9.64,1.3-14.39,2.26-3.92.8-7.83.49-11.71.62-8.3.27-16.39,1.63-24.46,3.36-1.89.41-3.8.79-5.71,1.07-2.37.35-3.54,2.67-5.7,3.29"/>
    <path class="cls-1" d="M183.45,450.17c-5.1-.55-9.91,1.64-14.87,1.69-1.05-3.69.52-7.31.14-10.91-4.54-.61-4.8-.57-5.89,3.25-.7,2.46-1.74,4.8-2.27,7.32-.32,1.52-1.34,2.54-3.21,2.48-5.05-.15-9.93,1.4-14.95,1.61"/>
    <path class="cls-1" d="M221.18,304.05c-.73,3.69-1.41,7.38-.83,11.26.41,2.75.22,5.62.03,8.42-.2,3.06.69,5.98.85,8.98.04.8.55,1.17,1.08,1.65,5.84,5.21,10.69,11.44,16.87,16.3"/>
    <path class="cls-1" d="M222.38,297.96c-.18.59-.32,1.2-.42,1.83-.22,1.43-.51,2.85-.79,4.27"/>
    <path class="cls-1" d="M227.78,277.51c-1.48,4.13-1.78,8.52-2.68,12.79-.57,2.69-1.94,5.04-2.72,7.66"/>
    <path class="cls-1" d="M247.33,261.73c-2.45,3.43-6.27,5.53-8.57,9.02-2.03-.96-3.88-1.95-5.47-3.85-3.45,2.75-4.17,6.86-5.51,10.6"/>
    <path class="cls-1" d="M209.28,227.74c-5.45,2.7-11.1,5.08-15.5,9.51-1.81,1.83-4.18,2.88-6.25,4.34.23.73.62,1.32,1.05,1.95.85,1.22,1.09,2.62-.78,3.21-2.19.69-1.4,2.18-.73,3.24.47.74.9,1.59,1.56,2.22,3.74,3.59,4.4,8.22,4.33,13.06-.04,2.27.25,4.53-.22,6.8-.32,1.58.53,2.31,2.14,2.17,2.93-.25,3.54.44,3.29,3.26-.13,1.48-.7,2.18-2.2,1.9-1.98-.37-2.72.74-2.99,2.45"/>
    <path class="cls-1" d="M191.59,281.88c2.31,1.27,4.99.68,7.36,1.59,1.75.68,1.83,1.2.56,2.47-.87.87-1.92,1.16-3.01,1.31-1.1.16-2.7-.27-2.63,1.38.06,1.45-.04,3.32,1.83,4.06.53.21.89.8,1.63.58,1-.3,1.95.63,2.09,1.09,1.62,5.44,6.18,3.89,9.58,3.62,4.29-.34,8.52-.43,12.79-.11"/>
    <path class="cls-1" d="M170.68,283.13c5.05-.47,10.12-.9,15.21-.75,1.37.04,2.77.28,4.1-.49.41-.24,1.17-.23,1.59,0"/>
    <path class="cls-1" d="M148.11,285.39c5.96.02,11.78-1.29,17.68-1.81,1.63-.14,3.26-.3,4.89-.45"/>
    <path class="cls-1" d="M208.19,506.73c-4.86,1.55-9.85,2.26-14.95,2.49-4.56.2-9.02,1.39-13.59,1.63-2.63.14-5.25.87-7.88.22-2.71-.67-3.29-1.5-2.71-4.06.88-3.87-.69-7.12-2.47-10.33-.73-1.32-1.76-1.5-3.27-1.17-1.58.35-2.97.88-4.35,1.67-1.01.58-1.9,1.56-3.33,1.38-1.25-3.5-1.74-7.31-3.72-10.59"/>
    <path class="cls-1" d="M161.47,376.4c-4-1.89-8.18-2-12.25-1.18-4.97,1-10.01.76-14.98,1.46-1.85.26-3.79.43-5.7.35"/>
    <path class="cls-1" d="M182.91,438.75c-3.24-1.66-6.43-2.77-10.09-.89-1.7.87-2.68-.8-3.43-2.2-4.02,1.97-6.11-1.05-8.48-3.18-1.36-1.22-2.51-2.72-4.87-2.25.11-2.14-.44-3.71-2.76-4.02-.92-.13-1.36-1.29-1.28-1.86.26-1.91-.61-3.08-2-3.83,0-1.55,1.26-1.74,1.94-2.42,2.56-2.58,2.92-6.36.79-9.25-.45-.61-1.03-1.15-1.62-1.63-2.75-2.27-2.89-4.59-.51-7.6,1.18-1.49,1.37-3.33,2.03-4.97.95-2.38,3.22-3.78,3.93-6.2.16-.53.64-.49,1.08-.56q3.82-.61,6.53-3.25c-.66-1.67-2.13-3.04-.66-5.25.73-1.1-.49-2.27-2.02-2.99"/>
    <path class="cls-1" d="M158.86,315.23c1.3,1.57,2.58,3.16,3.86,4.75,3.38,4.17,2.62,10.62-1.62,13.74-3.19,2.35-5.34,5.84-8.92,7.69-1.08.56-.49,1.41-.27,2.17.93,3.23,3.37,5.1,6.28,6.18,1.89.7,2.44,1.88,3.02,3.59,1.32,3.91-.03,8.19,1.85,11.98-2.05,3.46-.78,7.25-1.09,10.88"/>
    <path class="cls-1" d="M140.5,297.08c4.89,4.63,10.13,8.88,14.67,13.87,1.27,1.39,2.49,2.83,3.69,4.28"/>
    <path class="cls-1" d="M227.78,277.51c-1.48,4.13-1.78,8.52-2.68,12.79-.57,2.69-1.94,5.04-2.72,7.66"/>
  </g>
  <g id="_海达社区" data-name="海达社区">
    <path class="cls-2" d="M192.97,281.85c.27-1.71,1.01-2.82,2.99-2.45,1.5.28,2.07-.42,2.2-1.9.25-2.82-.36-3.51-3.29-3.26-1.61.14-2.47-.6-2.14-2.17.47-2.27.18-4.54.22-6.8.08-4.84-.59-9.46-4.33-13.06-.66-.63-1.09-1.48-1.56-2.22-.67-1.06-1.46-2.54.73-3.24,1.86-.59,1.62-1.99.78-3.21-.43-.63-.82-1.22-1.05-1.95,2.07-1.46,4.44-2.52,6.25-4.34,4.4-4.43,10.05-6.81,15.5-9.51l-.68-.27c-1.68-1.21-3.35.05-5.03.04-4.72-.04-9.4-.94-14.14-.59-4.04.29-7.74,1.14-11.48,3.15-10.27,5.5-19.03,13.08-28.47,19.71-1.17.82-2.46,1.48-3.54,2.44l-.97.21c1.14,1.09,2.55,1.93,3.96,2.78.83.5,1.74.56,2.72.58,3.4.07,6.21-1.72,9.23-2.78,3.88-1.36,6.59-.66,7.63,2.23-.51,1.2-1.72,1.53-2.72,2.15-2.99,1.85-3.38,4.13-.8,5.93,3.95,2.77,5.19,6.62,5.48,11.18.18,2.82,0,5.63.2,8.43v.19c5.06-.47,10.13-.9,15.22-.75,1.37.04,2.77.28,4.1-.49.41-.24,1.17-.23,1.59,0"/>
  </g>
  <g id="_海湾社区" data-name="海湾社区">
    <path class="cls-2" d="M161.47,376.4c1.53.72,2.75,1.88,2.02,2.99-1.46,2.2,0,3.57.66,5.25q-2.71,2.63-6.53,3.25c-.44.07-.92.02-1.08.56-.71,2.43-2.98,3.83-3.93,6.2-.65,1.64-.84,3.48-2.03,4.97-2.39,3-2.25,5.33.51,7.6.59.49,1.17,1.02,1.62,1.63,2.13,2.89,1.77,6.67-.79,9.25-.67.68-1.93.87-1.94,2.42,1.4.76,2.26,1.93,2,3.83-.08.57.36,1.74,1.28,1.86,2.32.32,2.87,1.88,2.76,4.02,2.36-.48,3.51,1.03,4.87,2.25,2.38,2.13,4.46,5.15,8.48,3.18.75,1.41,1.73,3.08,3.43,2.2,3.66-1.88,6.85-.78,10.09.89h.56c.01-.36.03-.72.03-1.09.16-6.43,1.53-12.72,2.62-19.04,1.06-6.13,3.74-11.77,7.3-16.43,5.66-7.41,12.25-14.16,18.59-21.06,3.99-4.35,8.03-8.67,11.87-13.13,5.07-5.9,10.26-11.69,15.45-17.49l-.16.14c-6.18-4.86-11.03-11.09-16.87-16.3-.53-.48-1.04-.85-1.08-1.65-.15-3-1.05-5.91-.85-8.98.19-2.8.38-5.67-.03-8.42-.58-3.88.1-7.57.83-11.26l-.76.1c-4.88.23-9.64,1.3-14.39,2.26-3.92.8-7.83.49-11.71.62-8.3.27-16.39,1.63-24.46,3.36-1.89.41-3.8.79-5.71,1.07-2.37.35-3.54,2.67-5.7,3.29l.42.47c1.3,1.57,2.58,3.16,3.86,4.75,3.38,4.17,2.62,10.62-1.62,13.74-3.19,2.35-5.34,5.84-8.92,7.69-1.08.56-.49,1.41-.27,2.17.93,3.23,3.37,5.1,6.28,6.18,1.89.7,2.44,1.88,3.02,3.59,1.32,3.91-.03,8.19,1.85,11.98-2.05,3.46-.78,7.25-1.09,10.88l-.51.19Z"/>
  </g>
  <g id="_海林社区" data-name="海林社区">
    <path class="cls-2" d="M170.68,283.13c5.05-.47,10.12-.9,15.21-.75,1.37.04,2.77.28,4.1-.49.41-.24,1.17-.23,1.59,0,2.31,1.27,4.99.68,7.36,1.59,1.75.68,1.83,1.2.56,2.47-.87.87-1.92,1.16-3.01,1.31-1.1.16-2.7-.27-2.63,1.38.06,1.45-.04,3.32,1.83,4.06.53.21.89.8,1.63.58,1-.3,1.95.63,2.09,1.09,1.62,5.44,6.18,3.89,9.58,3.62,4.29-.34,8.52-.43,12.79-.11l.6.06c-.18.59-.32,1.2-.42,1.83-.22,1.43-.51,2.85-.79,4.27l-.76.1c-4.88.23-9.64,1.3-14.39,2.26-3.92.8-7.83.49-11.71.62-8.3.27-16.39,1.63-24.46,3.36-1.89.41-3.8.79-5.71,1.07-2.37.35-3.54,2.67-5.7,3.29l.42.47c-1.2-1.45-2.42-2.88-3.69-4.28-4.54-4.99-9.79-9.24-14.67-13.87l-.2-.55c2.95-3.51,5.45-7.36,7.89-11.45l-.08.31c5.96.02,11.78-1.29,17.68-1.81,1.63-.14,3.26-.3,4.89-.45"/>
  </g>
  <g id="_海虹社区" data-name="海虹社区">
    <path class="cls-2" d="M221.18,304.05c-.73,3.69-1.41,7.38-.83,11.26.41,2.75.22,5.62.03,8.42-.2,3.06.69,5.98.85,8.98.04.8.55,1.17,1.08,1.65,5.84,5.21,10.69,11.44,16.87,16.3l.16-.14c2.69-3.01,5.39-6.02,8.06-9.05,2.23-2.52,4.45-5.06,6.67-7.59l-.22-.08c-3.26-4.76-6.75-9.32-11.7-12.49-1.81-1.16-3.64-2.28-5.35-3.82,2.36-3.56,5.09-6.64,8.08-9.52,3.01-2.9,5.73-6.01,7.7-9.53-3.36-4.68-7.77-7.99-11.48-11.97-3.65-3.91-8.19-6.27-13.07-8.14l-.25-.81c-1.48,4.13-1.78,8.52-2.68,12.79-.57,2.69-1.94,5.04-2.72,7.66-.18.59-.32,1.2-.42,1.83-.22,1.43-.51,2.85-.79,4.27"/>
  </g>
  <g id="_海景社区" data-name="海景社区">
    <path class="cls-2" d="M227.78,277.51c1.34-3.74,2.06-7.85,5.51-10.6,1.59,1.9,3.45,2.88,5.47,3.85,2.3-3.5,6.12-5.6,8.57-9.02l.59-.64c.4.27.82.52,1.26.75,2.94,1.5,4.89,4.49,7.35,6.74,5.26,4.8,10.92,9.05,16.57,13.35,5.15,3.92,9.74,8.53,14.19,13.25l.68.43c-6.1,6.94-12.2,13.88-18.4,20.73-5.23,5.79-10.36,11.66-15.5,17.53l-.22-.08c-3.26-4.76-6.75-9.32-11.7-12.49-1.81-1.16-3.64-2.28-5.35-3.82,2.36-3.56,5.09-6.64,8.08-9.52,3.01-2.9,5.73-6.01,7.7-9.53-3.36-4.68-7.77-7.99-11.48-11.97-3.65-3.91-8.19-6.27-13.07-8.14"/>
  </g>
  <g id="_海翔社区" data-name="海翔社区">
    <path class="cls-2" d="M170.68,283.13c-1.63.15-3.26.31-4.89.45-5.89.51-11.72,1.83-17.68,1.81l.08-.31c-2.45-1.92-3.82-4.31-4.71-7.03-.73-2.25-2.16-3.29-4.62-2.48-.57.19-1.28-.08-1.89.04-4.49.89-9.2-.15-13.57,1.4-1.92.68-3.84.41-5.74.67-1.71.23-3.05-1.15-3.74-2.65-.63-1.38.64-2.32,1.6-2.93,9.53-6.19,18.58-13.08,28.25-19.07l1.2-.61c1.14,1.09,2.55,1.93,3.96,2.78.83.5,1.74.56,2.72.58,3.4.07,6.21-1.72,9.23-2.78,3.88-1.36,6.59-.66,7.63,2.23-.51,1.2-1.72,1.53-2.72,2.15-2.99,1.85-3.38,4.13-.8,5.93,3.95,2.77,5.19,6.62,5.48,11.18.18,2.82,0,5.63.2,8.43v.19Z"/>
  </g>
  <g id="_钟山社区" data-name="钟山社区">
    <path class="cls-2" d="M140.3,296.53c2.95-3.51,5.45-7.36,7.89-11.45-2.45-1.92-3.82-4.31-4.71-7.03-.73-2.25-2.16-3.29-4.62-2.48-.57.19-1.28-.08-1.89.04-4.49.89-9.2-.15-13.57,1.4-1.92.68-3.84.41-5.74.67-1.71.23-3.05-1.15-3.74-2.65-.63-1.38.64-2.32,1.6-2.93,9.53-6.19,18.58-13.08,28.25-19.07l1.2-.61c-1.14-1.09-2.01-2.43-2.34-4.28-.18-.99-.58-1.97-.82-2.99-1.06-4.49-2.63-8.56-6.39-11.81-3.3-2.85-5.02-7.09-6.88-11.05-2.25-4.82-4.08-9.8-5.44-14.95-.44-1.68-1.34-3.21-2.27-4.55-.9-1.29-1.35-2.13-.18-3.33l-.81.55c-1.87-1.29-3.32-3.03-4.88-4.64-3.89-4.02-9.01-4.71-14.15-5.43-2.11-.3-2.9,1.64-4.42,2.61-1.94-1.52-4.3-.67-6.46-1.23-4.85-1.24-8.97-3.98-13.34-6.23-3.3-1.7-6.63-3.59-10.58-3.29-.54.04-1.06-.14-1.65.23-4.57,2.89-9.7,4.87-13.84,8.46-2.52,2.19-4.91,3.9-8.73,2.81-4.97-1.41-8.17,1.87-11.13,5.33-5.11,5.95-10.33,11.84-16.87,16.27-1.62,1.1-2.62,2.38-3.34,4.3,3.33,3.32,7,6.35,11.05,8.71,3.36,1.97,4.8,4.66,5.09,8.25.1,1.28.32,2.36,1.35,3.29.97.89,1.26,2.19,1.1,3.5-.27,2.22.45,4.35.61,6.52.07.97.32,2.21,1.32,2.69,3.95,1.93,5.36,5.82,7.3,9.29.39.7.84,1.43,1.08,2.17,1.41,4.45,4.54,6.84,9.02,7.26,2.16.2,2.8,1.37,3.57,3.04,1.61,3.49,2.38,7.05,2.16,10.9-.14,2.54-.08,5.09.46,7.62.24,1.12.74,1.31,1.68,1.36,2.7.15,5.23-.53,7.59-1.69,1.5-.74,2.91-1.54,4.64-1.61,1.99-.08,2.75.69,2.48,2.74-.33,2.55.35,4.97,1.3,7.35.65,1.65,1.7,1.65,3.02,1.07,2.5-1.08,4.6-2.79,6.81-4.33,5.39-3.78,10.59-7.84,16.43-11.25,2.34,1.99,3.77,4.74,5.56,7.17,1.69,2.29,3.51,4.47,5.35,6.64l.38-.4c.45-.45.9-.91,1.36-1.36,2.4-2.35,3.77-2.47,6.22-.24.84.76,1.59,1.65,2.29,2.63,2.94,4.14,5.66,8.55,10.37,11.23,4.41-3.26,4.72-9.24,8.32-13.06.68-.72,1.33-1.45,1.96-2.2"/>
  </g>
  <g id="_海发社区" data-name="海发社区">
    <path class="cls-2" d="M127.98,376.48c.07-10.89-.89-21.75-1.06-32.63-.05-3.33-.74-6.55-1.38-9.79-.74-3.73-1.99-7.38-2.37-11.16-.42-4.2-2.15-7.73-4.4-11.15-2.78-4.21-6.1-8-9.36-11.83l.38-.4c.45-.45.9-.91,1.36-1.36,2.4-2.35,3.77-2.47,6.22-.24.84.76,1.59,1.65,2.29,2.63,2.94,4.14,5.66,8.55,10.37,11.23,4.41-3.26,4.72-9.24,8.32-13.06.68-.72,1.33-1.45,1.96-2.2l.2.55c4.89,4.63,10.13,8.88,14.67,13.87,1.27,1.39,2.49,2.83,3.69,4.28,1.3,1.57,2.58,3.16,3.86,4.75,3.38,4.17,2.62,10.62-1.62,13.74-3.19,2.35-5.34,5.84-8.92,7.69-1.08.56-.49,1.41-.27,2.17.93,3.23,3.37,5.1,6.28,6.18,1.89.7,2.44,1.88,3.02,3.59,1.32,3.91-.03,8.19,1.85,11.98-2.05,3.46-.78,7.25-1.09,10.88l-.51.19c-4-1.89-8.18-2-12.25-1.18-4.97,1-10.01.76-14.98,1.46-1.85.26-3.79.43-5.7.35l-.56-.54Z"/>
  </g>
  <g id="_海湖社区" data-name="海湖社区">
    <path class="cls-2" d="M142.05,456.01c-.24-.77-.48-1.53-.73-2.3-1.63-5-3.22-9.99-4.17-15.21-.67-3.72-1.33-7.47-1.97-11.18-.81-4.69-1.84-9.37-2.25-14.12-.4-4.65-.9-9.31-1.78-13.84-1.48-7.58-3.22-15.07-3.17-22.86l.56.54c1.91.08,3.85-.08,5.7-.35,4.97-.7,10.01-.46,14.98-1.46,4.07-.82,8.25-.7,12.25,1.18,1.53.72,2.75,1.88,2.02,2.99-1.46,2.2,0,3.57.66,5.25q-2.71,2.63-6.53,3.25c-.44.07-.92.02-1.08.56-.71,2.43-2.98,3.83-3.93,6.2-.65,1.64-.84,3.48-2.03,4.97-2.39,3-2.25,5.33.51,7.6.59.49,1.17,1.02,1.62,1.63,2.13,2.89,1.77,6.67-.79,9.25-.67.68-1.93.87-1.94,2.42,1.4.76,2.26,1.93,2,3.83-.08.57.36,1.74,1.28,1.86,2.32.32,2.87,1.88,2.76,4.02,2.36-.48,3.51,1.03,4.87,2.25,2.38,2.13,4.46,5.15,8.48,3.18.75,1.41,1.73,3.08,3.43,2.2,3.66-1.88,6.85-.78,10.09.89h.56c-.14,3.77-.45,7.57.5,11.27l-.52.15c-5.1-.55-9.91,1.64-14.87,1.69-1.05-3.69.52-7.31.14-10.91-4.54-.61-4.8-.57-5.89,3.25-.7,2.46-1.74,4.8-2.27,7.32-.32,1.52-1.34,2.54-3.21,2.48-5.05-.15-9.93,1.4-14.95,1.61l-.36.4Z"/>
  </g>
  <g id="_东屿社区" data-name="东屿社区">
    <path class="cls-2" d="M183.45,450.17c-5.1-.55-9.91,1.64-14.87,1.69-1.05-3.69.52-7.31.14-10.91-4.54-.61-4.8-.57-5.89,3.25-.7,2.46-1.74,4.8-2.27,7.32-.32,1.52-1.34,2.54-3.21,2.48-5.05-.15-9.93,1.4-14.95,1.61l-.36.4c.73,2.37,1.36,4.76,1.73,7.22.2,1.3.54,2.61,1.09,3.8.75,1.62,1.41,3.26,2.02,4.93l.68-.02c.68-.52,1.43-1.04,2.19-1.32,3.43-1.24,6.97-2.5,10.02.79,1.2,1.29,2.26.89,3.27-.03,1.79-1.64,3.76-2.63,6.27-2.45,1.24.09,1.59-.65,1.67-1.88.15-2.31-.68-4.5-.61-6.8.06-1.87.87-2.68,2.74-2.75,1.92-.07,3.83.15,5.7.37,3.54.42,2.8-3.57,4.92-4.36.75-.28.5-.8.78-1.16.09-.11.07-.37,0-.53-.22-.59-.41-1.18-.56-1.78"/>
  </g>
  <g id="_未来海岸社区" data-name="未来海岸社区">
    <path class="cls-2" d="M208.19,506.73c-4.86,1.55-9.85,2.26-14.95,2.49-4.56.2-9.02,1.39-13.59,1.63-2.63.14-5.25.87-7.88.22-2.71-.67-3.29-1.5-2.71-4.06.88-3.87-.69-7.12-2.47-10.33-.73-1.32-1.76-1.5-3.27-1.17-1.58.35-2.97.88-4.35,1.67-1.01.58-1.9,1.56-3.33,1.38-1.25-3.5-1.74-7.31-3.72-10.59l-.14-.74c-1.74-5.11-3.07-10.28-4.89-15.28l.68-.02c.68-.52,1.43-1.04,2.19-1.32,3.43-1.24,6.97-2.5,10.02.79,1.2,1.29,2.26.89,3.27-.03,1.79-1.64,3.76-2.63,6.27-2.45,1.24.09,1.59-.65,1.67-1.88.15-2.31-.68-4.5-.61-6.8.06-1.87.87-2.68,2.74-2.75,1.92-.07,3.83.15,5.7.37,3.54.42,2.8-3.57,4.92-4.36.75-.28.5-.8.78-1.16.09-.11.07-.37,0-.53-.22-.59-.41-1.18-.56-1.78l.3,3.68c.71,1.08.91,2.26.82,3.54-.16,2.49.49,4.9.84,7.34.51,3.56,2.23,6.75,3.54,10.05,2.1,5.28,3.99,10.6,7.47,15.32,3.95,5.34,7.78,10.81,11.38,16.43l-.14.36Z"/>
  </g>
  <g id="_北附小社区" data-name="北附小社区">
    <path class="cls-2" d="M218.45,521.53c-.24-1.58-.96-3.09-2.1-4.2-3.29-3.19-5.6-7.19-8.02-10.96l-.14.36c-4.86,1.55-9.85,2.26-14.95,2.49-4.56.2-9.02,1.39-13.59,1.63-2.63.14-5.25.87-7.88.22-2.71-.67-3.29-1.5-2.71-4.06.88-3.87-.69-7.12-2.47-10.33-.73-1.32-1.76-1.5-3.27-1.17-1.58.35-2.97.88-4.35,1.67-1.01.58-1.9,1.56-3.33,1.38-1.25-3.5-1.74-7.31-3.72-10.59l-.14-.74c-3.58,1.39-6.97,3.14-10.46,4.62v.74c.41,4.01.87,7.98,2.66,11.72.98,2.04,2.23,3.02,4.41,2.67,1.41-.23,2.15.17,1.89,1.65-.54,3.11-.69,6.45-3.95,7.98,1.12,9.26-.11,18.71,4.3,27.56,1.88.1,3.97.03,6.21-.65,7.69-2.33,15.74-2.84,23.62-4.21,5.25-.92,10.56-1.48,15.81-2.47,3.77-.7,7.61-1.17,11.07-2.73,4.04-1.81,8.04-3.95,10.36-8.08.76-1.35.98-2.96.75-4.5"/>
  </g>
  <g id="_贞庵村" data-name="贞庵村">
    <path class="cls-2" d="M232.65,617.13c1.29.15.78-.83.8-1.36.27-10.15-.36-20.3.48-30.46.44-5.22.04-10.51.1-15.76.02-1.71-.22-3.13-1.62-4.38-3.93-3.5-7.02-7.83-10.9-11.39-1.12-1.03-1.57-2.24-1.69-3.8-.24-3.18.86-5.21,3.51-7.18,4.11-3.05,8.11-6.32,11.61-9.62,0-2.41-2.22-.72-2.97-1.89.51-1.5,2.75-1.56,2.57-3.34-.31-3.03.8-5.95.6-8.98-.05-.77-.31-1.61-.85-1.56-2.55.23-5.08-1.65-7.55.06-1.18-2.17-1.84-2.37-3.02-.64-1.32,1.94-2.79,3.6-4.93,4.6l-.34.12c.24,1.55,0,3.16-.75,4.5-2.32,4.13-6.33,6.26-10.36,8.08-3.46,1.55-7.3,2.02-11.07,2.73-5.25.98-10.56,1.55-15.81,2.47-7.88,1.38-15.93,1.88-23.62,4.21-2.24.68-4.33.76-6.21.65-4.41-8.84-3.18-18.3-4.3-27.56,3.27-1.53,3.41-4.87,3.95-7.98.26-1.48-.48-1.88-1.89-1.65-2.17.35-3.43-.63-4.41-2.67-1.79-3.74-2.25-7.71-2.66-11.72v-.74c-2.02.85-4.08,1.62-6.23,2.17-5.35,1.37-9.88,4.67-14.7,7.26-8.51,4.57-17.46,8.02-26.91,10.03-2.97.63-6.01-.18-8.95-.59-4.52-.63-8.88-2.15-13.33-3.17-.17-.04-.37.04-.54-.01-4.52-1.35-6.47-4.5-5.11-8.95,1.05-3.43,1.13-6.85,1.04-10.35-.09-3.54.24-7.07.51-10.61.17-2.18-.95-3.61-3.02-4.61-1.74,1.97-1.84,4.45-2.26,6.55-.64,3.25-2.02,6.04-3.36,8.96-4.05,8.82-10.35,15.89-17.19,22.52-4.21,4.09-7.28,9.16-11.81,12.89,2.29,4.26,7.33,4.84,9.97,8.17-.42,2.41-.93,4.57-2.74,6.17-.74.65-.51,1.59-.56,2.44-.09,1.54.11,3.07-.23,4.63-.71,3.25-.2,4.17,2.96,4.57,4.39.55,8.67,1.63,13.04,2.22,1.78.24,2.78.8,2.78,3,0,7.83-2.23,15.2-4.44,22.56-1.69,5.61-1.42,6.37,4.38,7.04,5.57.64,10.8,2.69,16.3,3.61,3.81.64,7.63,1.11,11.43,1.81,6.3,1.16,12.53,2.62,18.75,4.13,2.63.64,5.27,1.19,8.06,2.05.76-2.34.2-4.67.35-6.93.1-1.48,2.76-3.38,4.07-2.68,1.99,1.07,4.17.96,6.28,1.29,1.59.25,3.02.63,4.08,1.93,1.32,1.61,1.13,3.29-.55,4.63-2.11,1.68-2.18,2.18-.56,4.06,1.47-1.07,2.45-3.86,4.91-1.31-.35,1.24-2.2,1.42-2.19,3.11.65.84,1.78,1.02,2.74,1.15,1.29.18,2.36.72,2.94,1.71,2.56,4.37,7.95,5.59,10.34,9.89,2.8-1.43,5.2,0,7.64.23.51.05,1.11.21,1.64.17,5.19-.34,10.35.34,15.49.7,7.34.52,14.71.53,22.04,1.44,3.41.42,6.87.06,10.33.54,8.74,1.23,25.17.84,33.97.87"/>
  </g>
  <g id="_石塘村" data-name="石塘村">
    <path class="cls-2" d="M227.78,277.51c1.34-3.74,2.06-7.85,5.51-10.6,1.59,1.9,3.45,2.88,5.47,3.85,2.3-3.5,6.12-5.6,8.57-9.02l.59-.64c-2.79-1.89-4.55-4.7-7.35-6.8,2.8-3.95,6.27-6.24,10.3-7.77,1.4-.53,2.65-.37,3.82.78,2.15,2.13,4.12,4.42,5.97,6.81,1.95,2.51,3.57,3.03,6.2,1.31,3.67-2.39,7.53-4.59,10.39-8.08,2.26-2.76,5.83-2.31,7.61.79.99,1.72,1.5,3.61,2.13,5.46.66,1.95,1.85,3.38,3.84,3.46,2.81.11,5.67.43,8.44-.7,1.46-.59,2.58-1.3,3.26-2.76,1.32-2.85,3.93-3.85,6.17-1.83,3.1,2.79,6.68,4.89,9.85,7.54l.39.19c.45-.49.91-.96,1.39-1.43,4.1,1.55,7.52,4.03,11.12,5.88.71-.02.95-.51,1.22-.85,9.48-11.9,18.98-23.79,28.5-35.66,7.67-9.56,15.41-19.06,22.93-28.75,1.16-1.49,1.13-2.36.01-3.88-3.37-4.54-6.54-9.23-9.82-13.84-4.42-6.23-8.83-12.48-12.69-19.33-.58.51-1.1,1.06-1.58,1.63-1.72,2.03-2.94,4.3-4.78,6.02-4.95,4.59-10.2,8.79-16.02,12.25-7.27,4.32-13.92,9.58-21.22,13.83-2.62,1.52-5.34,2.83-7.04,5.47-.4.61-1.04.91-1.64,1.06-3.51.87-7,1.82-10.32,3.29-.19.08-.36,0-.57-.27-.51-.77-.22-1.64-.23-2.45-.05-3.04-.21-3.17-3.28-3.29-1.59-.06-3.08.45-4.62.54-6.64.39-13.26.92-19.85,1.89-5.68.83-11.24.65-15.81-3.71-.44-.42-1.11-.88-1.81-1.22-10.9-5.23-20.32-12.82-30.5-19.2-4.99-3.13-9.67-6.69-14.62-9.88-4.49-2.9-9.08-5.82-13.2-9.11-4.07-3.26-8.47-5.53-12.88-8.06-5.69-3.26-11.46-6.16-17.73-8.05l-.31-.56c-.85,1.44-1.7,2.87-2.42,4.36-1.76,3.66-4.44,5.97-8.68,6.6-3.93.59-7.41,2.92-11.2,3.85-3.79.93-5.99,2.77-6.14,6.42-.2,4.95-2.93,7.8-6.86,10.08-3.03,1.76-5.24,4.41-7.04,7.34-1.1,1.79-1.84,3.59-.94,6,1.35,3.62.28,7.6.91,11.39.1.63-.11,1.18-.54,1.63-1.17,1.2-.72,2.04.18,3.33.94,1.34,1.83,2.88,2.27,4.55,1.36,5.15,3.19,10.13,5.44,14.95,1.85,3.96,3.57,8.2,6.88,11.05,3.76,3.24,5.33,7.32,6.39,11.81.24,1.02.64,1.99.82,2.99.33,1.85,1.2,3.19,2.34,4.28l.97-.21c1.08-.96,2.36-1.62,3.54-2.44,9.44-6.63,18.2-14.21,28.47-19.71,3.74-2,7.44-2.85,11.48-3.15,4.74-.34,9.41.56,14.14.59,1.68.01,3.35-1.25,5.03-.04l.68.27c-5.45,2.7-11.1,5.08-15.5,9.51-1.81,1.83-4.18,2.88-6.25,4.34.23.73.62,1.32,1.05,1.95.85,1.22,1.09,2.62-.78,3.21-2.19.69-1.4,2.18-.73,3.24.47.74.9,1.59,1.56,2.22,3.74,3.59,4.4,8.22,4.33,13.06-.04,2.27.25,4.53-.22,6.8-.32,1.58.53,2.31,2.14,2.17,2.93-.25,3.54.44,3.29,3.26-.13,1.48-.7,2.18-2.2,1.9-1.98-.37-2.72.74-2.99,2.45l-1.38.03c2.31,1.27,4.99.68,7.36,1.59,1.75.68,1.83,1.2.56,2.47-.87.87-1.92,1.16-3.01,1.31-1.1.16-2.7-.27-2.63,1.38.06,1.45-.04,3.32,1.83,4.06.53.21.89.8,1.63.58,1-.3,1.95.63,2.09,1.09,1.62,5.44,6.18,3.89,9.58,3.62,4.29-.34,8.52-.43,12.79-.11"/>
  </g>
  <g id="_鳌冠社区" data-name="鳌冠社区">
    <path class="cls-2" d="M163.57,141.8c1.61-2.72,3.23-5.43,3.97-8.45,1.3-5.32,1.77-10.86-1.44-16.04-2.98-4.81-5.2-10.03-6.85-15.47-.73-2.41-.35-4.92-.63-7.37-.38-3.33-1.45-6.47-1.95-9.75-.48-3.17-.89-6.38-1.43-9.55-1.05-6.2-.69-12.5-.54-18.75.11-4.63.48-9.26.93-13.88l.37.55c1.77,2.54,2.74,5.53,4.85,7.92,3.4,3.86,7,7.51,10.66,11.1,1.62,1.59,3.05,3.44,3.71,5.48,3.45,10.67,11.51,14.89,21.82,16.32,4.34.6,8.63,1.45,12.54,3.72,1.36.79,1.45,1.52,1.08,2.78-.26.88-.76,1.62-1.12,2.44-1.06,2.39-1.66,4.81-.53,7.35,1.2,2.68,3.54,3.04,5.43.81.79-.93,1.53-1.9,2.68-3.02.75,1.89.95,3.65,1.19,5.47.36,2.8,1.2,5.1,4.23,6.66,4.63,2.38,9.35,3.42,14.47,3.78,3.54.25,7.13,0,10.59.54,5.07.8,9.87.37,14.7-1.15,2.88-.91,3.83-1.99,3.24-4.65-.72-3.23-1.12-6.49-1.07-9.79.06-4.27.38-8.4,5.98-8.96.43-.04.53-.39.82-.56,2.42-1.39,3.5-5.2,1.56-6.99-1.93-1.79-1.44-3.57-.99-5.51.19-.83.23-1.63.24-2.45.07-5.6.08-5.58,5.43-7.35,3.16-1.05,6.68-.93,9.52-2.98l.82-.27c1.06.45,1.72,1.32,2.49,2.14,1.01,1.06,1.47,2.73,3.48,2.88.8.06,1.5,1.35,1.68,2.59.35,2.39,1.29,2.8,3.22,1.64,3.5-2.1,3.46-2.08,5.99,1.08,3.46,4.34,7.09,8.54,10.35,13.04.26.36.54.74.78,1.11,2.15,3.36,1.9,4.54-1.34,6.8-.37.26-.87.35-1.11.88.03,1.54,1.25,2.55,2.24,3.4,3.18,2.75,5.09,6.66,8.63,9.07.94.64.6,1.93.55,2.95-.07,1.58.41,2.44,2.19,2.48,1.81.05,2.38,1.15,2.23,2.96-.1,1.26-.33,2.49-.91,3.51-2.37,4.1-1.42,8.11.35,11.97,3.04,6.64,6.76,12.95,9.21,19.86.11.3.45.72.56.77,4.05,1.91,6.39,6.43,11.65,6.76,3.32.2,6.93,1.09,9.8,3.35l.15.23c-1.72,2.03-2.94,4.3-4.78,6.02-4.95,4.59-10.2,8.79-16.02,12.25-7.27,4.32-13.92,9.58-21.22,13.83-2.62,1.52-5.34,2.83-7.04,5.47-.4.61-1.04.91-1.64,1.06-3.51.87-7,1.82-10.32,3.29-.19.08-.36,0-.57-.27-.51-.77-.22-1.64-.23-2.45-.05-3.04-.21-3.17-3.28-3.29-1.59-.06-3.08.45-4.62.54-6.64.39-13.26.92-19.85,1.89-5.68.83-11.24.65-15.81-3.71-.44-.42-1.11-.88-1.81-1.22-10.9-5.23-20.32-12.82-30.5-19.2-4.99-3.13-9.67-6.69-14.62-9.88-4.49-2.9-9.08-5.82-13.2-9.11-4.07-3.26-8.47-5.53-12.88-8.06-5.69-3.26-11.46-6.16-17.73-8.05l-.31-.56Z"/>
  </g>
  <g id="_海盛社区" data-name="海盛社区">
    <path class="cls-2" d="M287.02,64.04c-2.84,2.05-6.36,1.93-9.52,2.98-5.35,1.77-5.36,1.75-5.43,7.35-.01.82-.05,1.63-.24,2.45-.45,1.94-.95,3.72.99,5.51,1.94,1.8.87,5.6-1.56,6.99-.28.16-.39.51-.82.56-5.6.56-5.92,4.69-5.98,8.96-.05,3.31.35,6.56,1.07,9.79.59,2.66-.36,3.74-3.24,4.65-4.84,1.53-9.64,1.95-14.7,1.15-3.46-.54-7.05-.3-10.59-.54-5.12-.36-9.84-1.4-14.47-3.78-3.03-1.56-3.87-3.86-4.23-6.66-.23-1.82-.44-3.57-1.19-5.47-1.14,1.12-1.89,2.09-2.68,3.02-1.88,2.23-4.23,1.87-5.43-.81-1.13-2.54-.53-4.95.53-7.35.36-.82.86-1.55,1.12-2.44.37-1.27.28-2-1.08-2.78-3.91-2.27-8.2-3.12-12.54-3.72-10.31-1.43-18.37-5.65-21.82-16.32-.66-2.04-2.09-3.89-3.71-5.48-3.66-3.59-7.26-7.24-10.66-11.1-2.11-2.39-3.08-5.38-4.85-7.92l-.37-.55c.22-2.21.1-4.52.1-6.79,0-5.44-.03-10.88.01-16.32.02-3.04,1.23-4.17,4.05-3.47,1.92.48,3.81.46,5.72.47,1.38,0,2.62.35,3.51,1.39.65.76,1.39,1.55.33,2.73-1.08,1.2-1.02,2.56.23,3.79,1.29,1.27,2,2.86,2.48,4.61.74,2.76,2.71,4.64,5.42,4.8,3.67.21,6.3,2.02,8.99,4.15,2.84,2.25,5.39,4.89,8.67,6.56,1.63.82,3.24,1.63,5.17,1.36,4.97-.71,9.43,1.59,14.15,2.37,4.88.8,9.85.84,14.66-.75,1.4-.46,2.76-3.15,2.13-4.58-.93-2.09-.29-4.19-.47-6.28-.16-1.88,1.51-2.28,2.72-2.67,3.93-1.26,7.92-2.38,11.95-3.31.26-.06.6.09.81-.02,2.55-1.39,4.91-2.05,7.67-.06,2.4,1.73,5.58,1.08,8.39,1.65,2.29.47,3.99,1.32,5.48,3.27,4.93,6.47,8.09,13.91,11.88,20.99,1.86,3.48,8.34,3.47,8.18,7.33,0,.21-.82.27-.82.27Z"/>
    <path class="cls-2" d="M318.94,259.47c-2.54,2.73-4.74,5.73-7.18,8.52-6.04,6.93-11.87,14.03-17.94,20.94-1.95,2.22-3.9,4.45-5.86,6.67l-.68-.43c-4.45-4.72-9.04-9.34-14.19-13.25-5.65-4.3-11.31-8.55-16.57-13.35-2.46-2.25-4.41-5.24-7.35-6.74-3.57-1.82-5.41-5.15-8.61-7.55,2.8-3.95,6.27-6.24,10.3-7.77,1.4-.53,2.65-.37,3.82.78,2.15,2.13,4.12,4.42,5.97,6.81,1.95,2.51,3.57,3.03,6.2,1.31,3.67-2.39,7.53-4.59,10.39-8.08,2.26-2.76,5.83-2.31,7.61.79.99,1.72,1.5,3.61,2.13,5.46.66,1.95,1.85,3.38,3.84,3.46,2.81.11,5.67.43,8.44-.7,1.46-.59,2.58-1.3,3.26-2.76,1.32-2.85,3.93-3.85,6.17-1.83,3.1,2.79,6.68,4.89,9.85,7.54l.39.19Z"/>
  </g>
</svg>